<?xml version="1.0" encoding="UTF-8"?>
<svg width="50" height="50" viewBox="0 0 50 50" fill="none" xmlns="http://www.w3.org/2000/svg" role="img" aria-labelledby="rust-logo-title rust-logo-description">
<title id="rust-logo-title">Rust Logo</title>
<desc id="rust-logo-description">A black gear with the letter R in the center</desc>
<g id="surface1">
<path style=" stroke:none;fill-rule:nonzero;fill:rgb(0%,0%,0%);fill-opacity:1;" d="M 24.671875 8.222656 C 15.621094 8.222656 8.257812 15.589844 8.257812 24.636719 C 8.257812 33.679688 15.625 41.046875 24.671875 41.046875 C 33.714844 41.046875 41.082031 33.679688 41.082031 24.636719 C 41.082031 15.589844 33.714844 8.222656 24.671875 8.222656 Z M 24.644531 9.679688 C 25.230469 9.695312 25.695312 10.175781 25.695312 10.761719 C 25.695312 11.355469 25.210938 11.839844 24.613281 11.839844 C 24.019531 11.839844 23.535156 11.355469 23.535156 10.761719 C 23.535156 10.46875 23.652344 10.1875 23.863281 9.984375 C 24.070312 9.78125 24.355469 9.671875 24.644531 9.679688 Z M 27.117188 11.457031 C 30.953125 12.175781 34.28125 14.546875 36.214844 17.9375 L 34.941406 20.8125 C 34.722656 21.308594 34.949219 21.890625 35.441406 22.113281 L 37.890625 23.203125 C 37.96875 23.96875 37.976562 24.738281 37.921875 25.507812 L 36.554688 25.507812 C 36.421875 25.507812 36.363281 25.597656 36.363281 25.730469 L 36.363281 26.355469 C 36.363281 27.828125 35.535156 28.148438 34.804688 28.230469 C 34.109375 28.308594 33.34375 27.9375 33.246094 27.515625 C 32.835938 25.210938 32.15625 24.722656 31.078125 23.871094 C 32.417969 23.023438 33.804688 21.769531 33.804688 20.097656 C 33.804688 18.289062 32.566406 17.148438 31.722656 16.589844 C 30.535156 15.808594 29.222656 15.652344 28.867188 15.652344 L 14.769531 15.652344 C 16.71875 13.476562 19.332031 12 22.203125 11.457031 L 23.867188 13.203125 C 24.242188 13.59375 24.863281 13.609375 25.257812 13.234375 Z M 11.769531 19.453125 C 12.355469 19.46875 12.820312 19.945312 12.820312 20.53125 C 12.820312 21.128906 12.335938 21.609375 11.738281 21.609375 C 11.144531 21.609375 10.660156 21.128906 10.660156 20.53125 C 10.660156 20.238281 10.777344 19.960938 10.988281 19.757812 C 11.195312 19.554688 11.480469 19.441406 11.769531 19.453125 Z M 37.515625 19.5 C 38.101562 19.515625 38.566406 19.996094 38.566406 20.578125 C 38.566406 21.175781 38.082031 21.660156 37.484375 21.660156 C 36.890625 21.660156 36.40625 21.175781 36.40625 20.578125 C 36.40625 20.289062 36.523438 20.007812 36.734375 19.804688 C 36.941406 19.601562 37.226562 19.492188 37.515625 19.5 Z M 13.804688 19.671875 L 15.6875 19.671875 L 15.6875 28.160156 L 11.890625 28.160156 C 11.417969 26.511719 11.273438 24.789062 11.457031 23.085938 L 13.785156 22.050781 C 14.28125 21.828125 14.507812 21.25 14.285156 20.753906 Z M 21.660156 19.765625 L 26.140625 19.765625 C 26.375 19.765625 27.777344 20.03125 27.777344 21.082031 C 27.777344 21.953125 26.703125 22.265625 25.816406 22.265625 L 21.65625 22.265625 Z M 21.660156 25.859375 L 25.09375 25.859375 C 25.40625 25.859375 26.769531 25.953125 27.203125 27.695312 C 27.339844 28.230469 27.640625 29.972656 27.847656 30.53125 C 28.050781 31.15625 28.882812 32.40625 29.765625 32.40625 L 35.371094 32.40625 C 34.996094 32.910156 34.585938 33.386719 34.140625 33.828125 L 31.859375 33.339844 C 31.328125 33.226562 30.804688 33.566406 30.691406 34.097656 L 30.148438 36.625 C 26.625 38.222656 22.578125 38.203125 19.070312 36.574219 L 18.527344 34.046875 C 18.414062 33.515625 17.890625 33.171875 17.359375 33.289062 L 15.128906 33.765625 C 14.714844 33.339844 14.328125 32.886719 13.976562 32.40625 L 24.832031 32.40625 C 24.953125 32.40625 25.039062 32.386719 25.039062 32.269531 L 25.039062 28.429688 C 25.039062 28.320312 24.953125 28.296875 24.832031 28.296875 L 21.65625 28.296875 Z M 16.648438 34.65625 C 17.234375 34.671875 17.699219 35.152344 17.699219 35.734375 C 17.699219 36.332031 17.214844 36.816406 16.617188 36.816406 C 16.023438 36.816406 15.539062 36.332031 15.539062 35.734375 C 15.539062 35.445312 15.65625 35.164062 15.867188 34.960938 C 16.074219 34.757812 16.359375 34.648438 16.648438 34.65625 Z M 32.640625 34.703125 C 33.222656 34.722656 33.6875 35.199219 33.6875 35.785156 C 33.6875 36.382812 33.203125 36.863281 32.609375 36.863281 C 32.011719 36.863281 31.527344 36.382812 31.527344 35.785156 C 31.527344 35.492188 31.644531 35.214844 31.855469 35.011719 C 32.0625 34.804688 32.347656 34.695312 32.640625 34.703125 Z M 32.640625 34.703125 "/>
<path style="fill-rule:evenodd;fill:rgb(0%,0%,0%);fill-opacity:1;stroke-width:3;stroke-linecap:round;stroke-linejoin:round;stroke:rgb(0%,0%,0%);stroke-opacity:1;stroke-miterlimit:4;" d="M 115.68375 70.95375 C 115.68375 95.6025 95.70375 115.5825 71.055 115.5825 C 46.40625 115.5825 26.415 95.6025 26.415 70.95375 C 26.415 46.305 46.40625 26.325 71.055 26.325 C 95.70375 26.325 115.68375 46.305 115.68375 70.95375 Z M 114.84 66.645 L 121.80375 70.95375 L 114.84 75.2625 L 120.825 80.85375 L 113.16375 83.7225 L 117.945 90.37125 L 109.845 91.6875 L 113.25375 99.14625 L 105.06375 98.865 L 106.9425 106.84125 L 98.955 104.9625 L 99.2475 113.1525 L 91.78875 109.755 L 90.4725 117.84375 L 83.82375 113.0625 L 80.955 120.72375 L 75.36375 114.73875 L 71.055 121.7025 L 66.735 114.73875 L 61.155 120.72375 L 58.275 113.0625 L 51.62625 117.84375 L 50.31 109.755 L 42.85125 113.1525 L 43.14375 104.9625 L 35.15625 106.84125 L 37.035 98.865 L 28.845 99.14625 L 32.25375 91.6875 L 24.165 90.37125 L 28.935 83.7225 L 21.285 80.85375 L 27.25875 75.2625 L 20.295 70.95375 L 27.25875 66.645 L 21.285 61.05375 L 28.935 58.185 L 24.165 51.525 L 32.25375 50.20875 L 28.845 42.75 L 37.035 43.0425 L 35.15625 35.055 L 43.14375 36.945 L 42.85125 28.755 L 50.31 32.1525 L 51.62625 24.06375 L 58.275 28.845 L 61.155 21.18375 L 66.735 27.1575 L 71.055 20.205 L 75.36375 27.1575 L 80.955 21.18375 L 83.82375 28.845 L 90.4725 24.06375 L 91.78875 32.1525 L 99.2475 28.755 L 98.955 36.945 L 106.9425 35.055 L 105.06375 43.0425 L 113.25375 42.75 L 109.845 50.20875 L 117.945 51.525 L 113.16375 58.185 L 120.825 61.05375 Z M 114.84 66.645 " transform="matrix(0.347222,0,0,0.347222,0,0)"/>
</g>
</svg>
