<svg width="50" height="50" viewBox="0 0 50 50" fill="none" xmlns="http://www.w3.org/2000/svg" role="img" aria-labelledby="python-logo-title python-logo-description">
<title id="python-logo-title">Python Logo</title>
<desc id="python-logo-description">A blue and yellow snake symbol forming a plus with a somewhat circular or rounded shape</desc>
<path d="M24.7621 4.78437C23.1129 4.79218 21.5387 4.93242 20.1528 5.17773C16.0707 5.89882 15.3301 7.4082 15.3301 10.1922V13.8684H24.9758V15.0937H11.7098C8.90666 15.0937 6.45197 16.7785 5.684 19.9848C4.79806 23.6586 4.759 25.9516 5.684 29.7879C6.36955 32.6437 8.00705 34.6781 10.8106 34.6781H14.1274V30.2711C14.1274 27.0871 16.8817 24.2789 20.1531 24.2789H29.7879C32.4699 24.2789 34.6106 22.0703 34.6106 19.3773V10.1926C34.6106 7.57812 32.4051 5.61445 29.7879 5.17812C28.1301 4.90234 26.411 4.77695 24.7621 4.78437ZM19.5457 7.74101C20.5418 7.74101 21.3559 8.56796 21.3559 9.58515C21.3559 10.598 20.5422 11.4172 19.5457 11.4172C18.5457 11.4172 17.736 10.598 17.736 9.58515C17.7356 8.56796 18.5457 7.74101 19.5457 7.74101Z" fill="url(#paint0_linear_98_155)"/>
<path d="M35.8133 15.0937V19.3773C35.8133 22.6977 32.9977 25.4926 29.7875 25.4926H20.1527C17.5137 25.4926 15.3301 27.7516 15.3301 30.3945V39.5801C15.3301 42.1937 17.6027 43.7316 20.1527 44.4812C23.2059 45.3785 26.134 45.541 29.7875 44.4812C32.2156 43.7777 34.6102 42.3629 34.6102 39.5801V35.9035H24.9758V34.6777H39.4336C42.2367 34.6777 43.282 32.7227 44.257 29.7875C45.2641 26.766 45.2207 23.8602 44.257 19.9844C43.5641 17.1934 42.241 15.0934 39.4336 15.0934L35.8133 15.0937ZM30.3941 38.3543C31.3945 38.3543 32.2043 39.1734 32.2043 40.1871C32.2043 41.2035 31.3941 42.0305 30.3941 42.0305C29.398 42.0305 28.5844 41.2035 28.5844 40.1871C28.5844 39.1734 29.398 38.3543 30.3941 38.3543Z" fill="url(#paint1_linear_98_155)"/>
<path opacity="0.444" d="M38.0113 46.7176C38.0113 48.1016 32.2238 49.2238 25.0851 49.2238C17.9461 49.2238 12.1586 48.1016 12.1586 46.7176C12.1586 45.3336 17.9457 44.2109 25.0851 44.2109C32.2238 44.2109 38.0113 45.3328 38.0113 46.7176Z" fill="url(#paint2_radial_98_155)"/>
<defs>
<linearGradient id="paint0_linear_98_155" x1="4.03786" y1="5.93383" x2="26.2854" y2="24.9064" gradientUnits="userSpaceOnUse">
<stop stop-color="#5A9FD4"/>
<stop offset="1" stop-color="#306998"/>
</linearGradient>
<linearGradient id="paint1_linear_98_155" x1="34.6558" y1="36.7001" x2="26.6775" y2="25.5118" gradientUnits="userSpaceOnUse">
<stop stop-color="#FFD43B"/>
<stop offset="1" stop-color="#FFE873"/>
</linearGradient>
<radialGradient id="paint2_radial_98_155" cx="0" cy="0" r="1" gradientUnits="userSpaceOnUse" gradientTransform="translate(25.0329 46.6458) rotate(-90) scale(2.50716 11.021)">
<stop stop-color="#B8B8B8" stop-opacity="0.498"/>
<stop offset="1" stop-color="#7F7F7F" stop-opacity="0"/>
</radialGradient>
</defs>
</svg>
