<svg width="50" height="50" viewBox="0 0 50 50" fill="none" xmlns="http://www.w3.org/2000/svg">
<path d="M7.34922 44.5793L3.42188 0.528137H46.5781L42.6469 44.5727L24.9738 49.4723L7.34922 44.5793Z" fill="#1572B6"/>
<path d="M25.0004 45.7274L39.2812 41.768L42.641 4.1297H25.0004V45.7274Z" fill="#33A9DC"/>
<path d="M25.0004 20.0895H32.1496L32.6433 14.557H25.0004V9.1543H38.548L38.4183 10.6039L37.0902 25.4922H25.0004V20.0895Z" fill="white"/>
<path d="M25.0324 34.1207L25.0086 34.1277L18.9918 32.5031L18.607 28.1942H13.1844L13.941 36.6774L25.0078 39.7488L25.0324 39.7418V34.1207Z" fill="#EBEBEB"/>
<path d="M31.6902 25.2637L31.0395 32.4988L25.0137 34.1254V39.7465L36.0895 36.677L36.1707 35.7641L37.1105 25.2637H31.6902Z" fill="white"/>
<path d="M25.0188 9.1543V14.557H11.9688L11.8606 13.343L11.6145 10.6039L11.4852 9.1543H25.0188ZM25.0004 20.0902V25.493H19.0594L18.9512 24.2789L18.7047 21.5398L18.5758 20.0902H25.0004Z" fill="#EBEBEB"/>
</svg>
