<?xml version="1.0" encoding="UTF-8"?>
<svg xmlns="http://www.w3.org/2000/svg" xmlns:xlink="http://www.w3.org/1999/xlink" width="50px" height="50px" viewBox="0 0 50 50" version="1.1">
<g id="surface1">
<path style=" stroke:none;fill-rule:nonzero;fill:rgb(90.588236%,43.529412%,0%);fill-opacity:1;" d="M 37.308594 39.429688 L 37.121094 39.429688 L 37.121094 39.324219 L 37.628906 39.324219 L 37.628906 39.429688 L 37.441406 39.429688 L 37.441406 39.953125 L 37.308594 39.953125 Z M 38.320312 39.457031 L 38.316406 39.457031 L 38.132812 39.953125 L 38.046875 39.953125 L 37.859375 39.457031 L 37.859375 39.953125 L 37.734375 39.953125 L 37.734375 39.324219 L 37.917969 39.324219 L 38.089844 39.769531 L 38.261719 39.324219 L 38.441406 39.324219 L 38.441406 39.953125 L 38.320312 39.953125 Z M 38.320312 39.457031 "/>
<path style=" stroke:none;fill-rule:nonzero;fill:rgb(32.549021%,50.980395%,63.137257%);fill-opacity:1;" d="M 20.445312 26.523438 C 20.445312 26.523438 19.136719 27.285156 21.378906 27.542969 C 24.097656 27.851562 25.484375 27.808594 28.480469 27.242188 C 28.480469 27.242188 29.269531 27.734375 30.367188 28.164062 C 23.652344 31.039062 15.171875 27.996094 20.445312 26.523438 M 19.625 22.769531 C 19.625 22.769531 18.15625 23.855469 20.402344 24.089844 C 23.304688 24.386719 25.597656 24.410156 29.5625 23.648438 C 29.5625 23.648438 30.113281 24.203125 30.976562 24.507812 C 22.859375 26.882812 13.816406 24.695312 19.625 22.769531 "/>
<path style=" stroke:none;fill-rule:nonzero;fill:rgb(90.588236%,43.529412%,0%);fill-opacity:1;" d="M 26.542969 16.398438 C 28.195312 18.304688 26.109375 20.015625 26.109375 20.015625 C 26.109375 20.015625 30.308594 17.847656 28.378906 15.132812 C 26.578125 12.601562 25.195312 11.34375 32.675781 7.003906 C 32.675781 7.003906 20.933594 9.9375 26.542969 16.398438 "/>
<path style=" stroke:none;fill-rule:nonzero;fill:rgb(32.549021%,50.980395%,63.137257%);fill-opacity:1;" d="M 35.421875 29.300781 C 35.421875 29.300781 36.390625 30.097656 34.355469 30.71875 C 30.476562 31.890625 18.222656 32.246094 14.820312 30.765625 C 13.597656 30.230469 15.890625 29.492188 16.613281 29.339844 C 17.367188 29.175781 17.796875 29.203125 17.796875 29.203125 C 16.433594 28.246094 9 31.085938 14.019531 31.902344 C 27.707031 34.121094 38.972656 30.902344 35.421875 29.300781 M 21.078125 18.878906 C 21.078125 18.878906 14.84375 20.359375 18.871094 20.894531 C 20.570312 21.125 23.957031 21.070312 27.113281 20.808594 C 29.695312 20.589844 32.285156 20.128906 32.285156 20.128906 C 32.285156 20.128906 31.375 20.515625 30.714844 20.964844 C 24.386719 22.628906 12.160156 21.855469 15.679688 20.152344 C 18.65625 18.714844 21.078125 18.878906 21.078125 18.878906 M 32.257812 25.128906 C 38.691406 21.785156 35.71875 18.570312 33.640625 19.003906 C 33.132812 19.109375 32.90625 19.203125 32.90625 19.203125 C 32.90625 19.203125 33.09375 18.90625 33.453125 18.777344 C 37.5625 17.332031 40.722656 23.035156 32.128906 25.296875 C 32.128906 25.296875 32.230469 25.207031 32.257812 25.128906 "/>
<path style=" stroke:none;fill-rule:nonzero;fill:rgb(90.588236%,43.529412%,0%);fill-opacity:1;" d="M 28.378906 0 C 28.378906 0 31.941406 3.566406 25 9.046875 C 19.429688 13.441406 23.730469 15.949219 24.996094 18.816406 C 21.746094 15.882812 19.363281 13.300781 20.960938 10.898438 C 23.308594 7.371094 29.816406 5.664062 28.378906 0 "/>
<path style=" stroke:none;fill-rule:nonzero;fill:rgb(32.549021%,50.980395%,63.137257%);fill-opacity:1;" d="M 21.710938 34.1875 C 27.886719 34.582031 37.371094 33.96875 37.59375 31.046875 C 37.59375 31.046875 37.164062 32.152344 32.488281 33.035156 C 27.21875 34.027344 20.714844 33.910156 16.859375 33.273438 C 16.859375 33.273438 17.648438 33.925781 21.710938 34.1875 "/>
<path style=" stroke:none;fill-rule:nonzero;fill:rgb(90.588236%,43.529412%,0%);fill-opacity:1;" d="M 20.695312 45.355469 C 20.113281 45.859375 19.5 46.144531 18.945312 46.144531 C 18.160156 46.144531 17.734375 45.671875 17.734375 44.914062 C 17.734375 44.09375 18.1875 43.492188 20.019531 43.492188 L 20.695312 43.492188 L 20.695312 45.355469 M 22.304688 47.167969 L 22.304688 41.554688 C 22.304688 40.117188 21.488281 39.171875 19.515625 39.171875 C 18.363281 39.171875 17.355469 39.457031 16.535156 39.820312 L 16.769531 40.8125 C 17.417969 40.578125 18.25 40.355469 19.070312 40.355469 C 20.207031 40.355469 20.695312 40.8125 20.695312 41.757812 L 20.695312 42.46875 L 20.128906 42.46875 C 17.371094 42.46875 16.125 43.539062 16.125 45.148438 C 16.125 46.539062 16.945312 47.328125 18.488281 47.328125 C 19.484375 47.328125 20.222656 46.917969 20.917969 46.316406 L 21.042969 47.167969 Z M 27.671875 47.167969 L 25.664062 47.167969 L 23.25 39.316406 L 25.003906 39.316406 L 26.5 44.140625 L 26.832031 45.589844 C 27.589844 43.492188 28.125 41.363281 28.394531 39.316406 L 30.097656 39.316406 C 29.640625 41.902344 28.820312 44.738281 27.671875 47.167969 M 35.363281 45.355469 C 34.777344 45.859375 34.160156 46.144531 33.609375 46.144531 C 32.824219 46.144531 32.394531 45.671875 32.394531 44.914062 C 32.394531 44.09375 32.851562 43.492188 34.683594 43.492188 L 35.363281 43.492188 L 35.363281 45.355469 M 36.96875 47.167969 L 36.96875 41.554688 C 36.96875 40.117188 36.148438 39.171875 34.179688 39.171875 C 33.027344 39.171875 32.019531 39.457031 31.199219 39.820312 L 31.433594 40.8125 C 32.082031 40.578125 32.917969 40.355469 33.738281 40.355469 C 34.871094 40.355469 35.363281 40.8125 35.363281 41.757812 L 35.363281 42.46875 L 34.792969 42.46875 C 32.03125 42.46875 30.789062 43.539062 30.789062 45.148438 C 30.789062 46.539062 31.609375 47.328125 33.152344 47.328125 C 34.148438 47.328125 34.886719 46.917969 35.582031 46.316406 L 35.707031 47.167969 Z M 14.359375 48.503906 C 13.902344 49.171875 13.164062 49.699219 12.351562 50 L 11.558594 49.066406 C 12.175781 48.75 12.703125 48.238281 12.949219 47.761719 C 13.164062 47.339844 13.25 46.792969 13.25 45.488281 L 13.25 36.523438 L 14.957031 36.523438 L 14.957031 45.363281 C 14.957031 47.109375 14.820312 47.816406 14.359375 48.503906 "/>
</g>
</svg>
