<svg width="50" height="50" viewBox="0 0 50 50" fill="none" xmlns="http://www.w3.org/2000/svg" role="img" aria-labelledby="scss-logo-title scss-logo-description">
<title id="scss-logo-title">Sass or SCSS Logo</title>
<desc id="scss-logo-description">The word Sass in pink cursive font</desc>
<path fill-rule="evenodd" clip-rule="evenodd" d="M0.476196 21.9359C0.476196 22.2105 0.557056 22.3918 0.602368 22.568C0.897681 23.7137 1.53245 24.6969 2.28557 25.5937C3.35823 26.8719 4.6719 27.9008 6.0176 28.8684C7.18479 29.7074 8.37581 30.5277 9.54768 31.3605C9.74885 31.5035 9.93909 31.668 10.1574 31.8434C9.96956 31.9449 9.81331 32.0344 9.65081 32.1168C8.10432 32.9012 6.61643 33.7805 5.24495 34.8457C4.41838 35.4879 3.61917 36.1703 3.05471 37.0621C2.14651 38.4965 1.82502 40.0246 2.50198 41.6562C2.69963 42.1328 3.0012 42.5445 3.42659 42.8488C3.56448 42.9473 3.71917 43.0449 3.88049 43.0832C4.29377 43.1805 4.71487 43.2441 5.13323 43.3211L6.31799 43.3203C7.62815 43.2035 8.82073 42.7547 9.89846 42.0109C11.5828 40.8484 12.7176 39.2898 13.2055 37.2895C13.5602 35.8355 13.5746 34.3801 13.1567 32.9328C13.1165 32.7988 13.0704 32.6666 13.0184 32.5367C12.9676 32.4066 12.9078 32.2801 12.8375 32.118L15.5235 30.5734L15.5637 30.6078C15.5149 30.7676 15.4629 30.927 15.4188 31.0883C15.0996 32.2539 14.8875 33.4398 14.9637 34.6496C15.0449 35.9387 15.4047 37.1453 16.1594 38.2223C16.7696 39.0934 18.2235 39.1258 18.8719 38.2516C19.102 37.941 19.325 37.6164 19.4926 37.2699C19.9305 36.3656 20.336 35.4453 20.7543 34.5313L20.8274 34.3641C20.7973 34.7969 20.7621 35.177 20.7461 35.5574C20.7211 36.1516 20.7559 36.7422 20.959 37.3074C21.1328 37.791 21.4285 38.1523 21.9824 38.216C22.3614 38.2594 22.6633 38.0859 22.9418 37.866C23.3732 37.5249 23.7308 37.0998 23.993 36.6164C24.7356 35.2527 25.4981 33.8973 26.1711 32.4992C26.8992 30.9871 27.536 29.4309 28.2121 27.893L28.3239 27.6203C28.4836 28.248 28.5949 28.8629 28.8 29.4449C29.0383 30.1203 29.3332 30.7797 29.6543 31.4207C29.8063 31.7234 29.7887 31.9199 29.5781 32.1738C28.6969 33.2363 27.8309 34.3117 26.9641 35.3859C26.7723 35.623 26.5813 35.8645 26.4215 36.1234C26.3246 36.287 26.2609 36.468 26.234 36.6562C26.2071 36.8295 26.2484 37.0065 26.3491 37.15C26.4498 37.2935 26.6022 37.3925 26.7742 37.4262C27.1216 37.5008 27.4777 37.5261 27.8321 37.5016C29.0418 37.4125 30.1403 36.9879 31.1114 36.2684C32.3696 35.3363 32.7735 34.0645 32.4688 32.557C32.3864 32.148 32.2406 31.7504 32.0989 31.3563C32.0352 31.1785 32.0309 31.0539 32.1469 30.8883C33.1528 29.452 34.0121 27.9281 34.8114 26.3691C34.843 26.3078 34.8754 26.2465 34.9309 26.1809C35.1899 27.5285 35.5797 28.8273 36.2781 30.0059C35.9219 30.3492 35.5692 30.6605 35.25 31.0035C34.5473 31.759 33.9379 32.5793 33.6199 33.5797C33.4832 34.0109 33.3781 34.4492 33.4391 34.9098C33.5336 35.625 34.1196 36.0898 34.8231 35.927C36.3285 35.5785 37.6281 34.8691 38.5778 33.6125C39.2168 32.7664 39.275 31.8227 39.0074 30.834C38.934 30.5652 38.8469 30.3008 38.7531 29.9926C39.1246 29.8773 39.4867 29.7391 39.8614 29.6535C41.8063 29.2098 43.7301 29.2871 45.6043 29.9895C46.6985 30.3996 47.5824 31.0859 48.1067 32.1656C48.7469 33.4855 48.393 34.7379 47.1489 35.5723C47.0328 35.65 46.9 35.7113 46.8039 35.8086C46.7732 35.8443 46.7502 35.886 46.7364 35.931C46.7226 35.9761 46.7183 36.0235 46.7239 36.0703C46.7321 36.1184 46.859 36.1785 46.9321 36.1777C47.341 36.1746 47.6727 35.9602 47.991 35.7398C48.7887 35.1879 49.3707 34.4453 49.4961 33.4676L49.5207 33.3941L49.4906 32.7574C49.4785 32.7207 49.4996 32.6844 49.4969 32.6566C49.3274 31.2328 48.5668 30.1285 47.4606 29.2629C46.1793 28.2609 44.6664 27.8484 43.0664 27.7832C41.7688 27.7273 40.4728 27.9268 39.252 28.3703C38.9016 28.4973 38.5543 28.6477 38.202 28.7895C38.1547 28.7039 38.1039 28.6219 38.0621 28.5371C37.7004 27.7965 37.2621 27.0887 37.1653 26.2395C37.0965 25.6363 37.0121 25.034 37.1555 24.4375C37.2934 23.8637 37.4731 23.2996 37.6422 22.7336C37.7293 22.4422 37.668 22.2789 37.3899 22.1477C37.2927 22.1 37.1893 22.0661 37.0828 22.0469C36.3992 21.9477 35.725 22.0043 35.0629 22.1969C34.8285 22.2652 34.6582 22.3965 34.6063 22.6559C34.5766 22.8047 34.516 22.9473 34.4739 23.0941C34.3008 23.7047 34.1781 24.327 33.8985 24.9086C33.1977 26.3676 32.3977 27.7715 31.5789 29.1652C31.4903 29.3156 31.3969 29.4633 31.2852 29.6457C30.9977 29.0441 30.691 28.5043 30.5981 27.8715C30.493 27.1559 30.4102 26.4414 30.5883 25.7313C30.7207 25.2016 30.8938 24.6816 31.0531 24.159C31.1285 23.9105 31.0938 23.7801 30.8688 23.6492C30.7551 23.5832 30.6266 23.5246 30.4985 23.5055C29.7975 23.3987 29.0813 23.4572 28.4071 23.6766C28.1949 23.7453 28.0836 23.8824 28.0188 24.1012C27.8281 24.7465 27.6656 25.4074 27.3981 26.0211C26.3145 28.5055 25.1996 30.977 24.086 33.448C23.8535 33.9641 23.5813 34.4621 23.3192 34.9645C23.2528 35.0918 23.1559 35.2039 23.0731 35.3234C23.0067 35.2449 22.9809 35.191 22.9813 35.1371C22.9832 34.8195 22.9453 34.4926 23.0059 34.1855C23.1918 33.257 23.3973 32.3324 23.6223 31.4125C23.8059 30.6523 24.0196 29.8992 24.2231 29.1441C24.2914 28.8914 24.2926 28.6551 24.111 28.4426C23.8059 28.0867 23.1684 28.0086 22.7903 28.2828L22.6231 28.3773L22.6555 28.1078C22.7352 27.5301 22.7512 26.9543 22.5926 26.3852C22.3949 25.6758 21.8887 25.2676 21.1528 25.2902C20.8098 25.3008 20.4496 25.3594 20.1321 25.4844C18.7965 26.0078 17.7696 26.9348 16.8953 28.05C16.8142 28.1535 16.7138 28.2403 16.5996 28.3055C15.4696 28.932 14.336 29.5508 13.2028 30.1719L11.9414 30.8629C11.6031 30.5402 11.2957 30.2055 10.9469 29.9215C9.88167 29.0527 8.79924 28.2055 7.72659 27.3465C6.77581 26.5852 5.85471 25.7922 5.15002 24.784C4.62581 24.034 4.28792 23.2133 4.25549 22.2859C4.21448 21.1043 4.54963 20.0246 5.1512 19.0195C5.92073 17.7336 6.97034 16.7016 8.12424 15.7668C9.34495 14.7785 10.6653 13.9395 12.0336 13.1734C13.9481 12.102 15.9172 11.1535 18.0285 10.5273C20.1934 9.88516 22.3899 9.51758 24.6555 9.77383C25.5461 9.87461 26.411 10.0785 27.2051 10.5141C27.8133 10.8473 28.3121 11.2836 28.5442 11.9656C28.7731 12.6367 28.766 13.3168 28.6074 13.9984C28.2852 15.3789 27.5293 16.5168 26.5781 17.5336C25.018 19.2004 23.1149 20.3352 20.9723 21.0848C19.7403 21.5162 18.4586 21.7897 17.1578 21.8984C16.0918 21.9879 15.0481 21.8934 14.0387 21.5227C13.3703 21.277 12.7883 20.9012 12.3203 20.3559C12.2367 20.2582 12.1297 20.1523 11.9739 20.2438C11.8211 20.3336 11.7942 20.4789 11.8453 20.6262C11.9309 20.8707 12.0098 21.1254 12.143 21.3441C12.4778 21.893 12.966 22.291 13.5035 22.6324C14.536 23.2891 15.6899 23.5098 16.8864 23.5609C18.702 23.6395 20.4735 23.3684 22.2199 22.8813C24.7133 22.1859 26.8813 20.9578 28.6199 19.0203C30.0676 17.407 31.1016 15.5863 31.3231 13.3879C31.4313 12.3148 31.316 11.2637 30.8137 10.2848C30.2688 9.22422 29.4024 8.43555 28.3664 7.89219C26.8578 7.10117 25.2297 6.64062 23.5492 6.64062H21.8656C19.8305 6.64062 17.8629 7.22383 15.9504 7.91953C14.5028 8.44648 13.0832 9.06836 11.7051 9.75664C8.70393 11.2562 5.90901 13.0645 3.61331 15.5508C2.46956 16.7895 1.5012 18.1562 0.944165 19.7656C0.776331 20.2462 0.631505 20.7345 0.510181 21.2289M11.3848 35.2965C11.2547 37.0383 10.4653 38.4504 9.17502 39.5941C8.44924 40.2371 7.61682 40.6949 6.64729 40.8559C6.29573 40.9141 5.93596 40.9281 5.59495 40.7824C5.10862 40.5746 4.99963 40.143 4.99026 39.6832C4.97581 38.9504 5.23245 38.2879 5.5844 37.6574C6.04377 36.8355 6.71721 36.209 7.43635 35.6238C8.56917 34.7016 9.79807 33.9211 11.0567 33.1844L11.1516 33.1453C11.3461 33.8641 11.4387 34.5738 11.3848 35.2965ZM21.2121 27.7266C21.1203 28.2828 21.0055 28.8395 20.843 29.3785C20.2813 31.2445 19.5598 33.0527 18.7797 34.8367C18.6356 35.1668 18.4258 35.468 18.2434 35.7809C18.2123 35.8289 18.1752 35.8728 18.1328 35.9113C17.9071 36.1344 17.693 36.1227 17.5789 35.8309C17.4461 35.4918 17.3645 35.1289 17.2942 34.7699C17.2469 34.5289 17.2582 34.2758 17.2434 34.0289C17.2586 32.2734 17.7942 30.6781 18.7028 29.193C19.0774 28.5805 19.4852 27.9969 20.1082 27.6094C20.3021 27.489 20.5118 27.3962 20.7313 27.3336C21.0633 27.2402 21.2672 27.3938 21.2121 27.7266ZM27.9168 36.2687L30.3266 33.4551C30.427 34.5 28.6508 36.5859 27.9168 36.2687ZM35.6133 34.3754C35.443 34.473 35.2574 34.5434 35.0828 34.6336C34.9231 34.7164 34.8703 34.6328 34.8656 34.4953C34.8634 34.4001 34.8756 34.3052 34.902 34.2137C35.2274 33.066 35.8262 32.0863 36.7172 31.2895L36.7797 31.2574C37.2035 32.443 36.7137 33.7449 35.6133 34.3754Z" fill="#CB6699"/>
</svg>
