<svg version="1.2" xmlns="http://www.w3.org/2000/svg" viewBox="0 0 50 50" width="50" height="50"><style>.a{fill:#f14729}.b{fill:#1e5cb3}.c{fill:#fff}.d{fill:#fff200}</style><path class="a" d="m19.9 48.8l20.4 0.7-1.2-25.2 1.9-23-9.4 0.5-4.4-1.8-19.2 1 1 22.7-1 26.2z"/><path class="b" d="m26.5 30.7l-1.8 0.4 1-2.3 0.9-6.3-1.1-0.3 1.4-2 1.7-6.6-3.1 0.7c0 0 1.7-3 3.4-5l-2.3-1.7c0 0-7.3 3.2-5.3 13.7l-1.5-0.3 1.4 11-1.2 0.3c0 0 1.3 2.6 3 3.8 0.2 0.1-2.2-8.6 0.3-17.3l0.3 0.6c0 0-2 9.2 0 16.7 0 0 0.1 0.2 1.1 0.1 0 0 1.8-3.5 1.8-5.5z"/><path class="c" d="m13.6 38.5h0.3v-0.7q0.3 0 0.5 0v0.7h0.5v0.2h-0.5v1.8c0 0.1 0 0.3 0.2 0.3 0.2 0 0.2-0.1 0.3-0.2h0.1c-0.1 0.3-0.4 0.4-0.6 0.4-0.4 0-0.5-0.2-0.5-0.5v-1.8h-0.3z"/><path class="c" d="m18.9 40.2c-0.2 0.4-0.4 0.8-1.1 0.8-0.9 0-1.2-0.8-1.2-1.2 0-1.1 0.9-1.3 1.2-1.3 0.4 0 1 0.1 1 0.6 0 0.2-0.1 0.3-0.3 0.3-0.2 0-0.3-0.1-0.3-0.3 0-0.2 0.2-0.2 0.2-0.3 0-0.1-0.4-0.2-0.5-0.2-0.6 0-0.7 0.4-0.7 1.2 0 0.4 0.1 0.6 0.1 0.7q0.1 0.3 0.6 0.4c0.3 0 0.7-0.3 0.8-0.7z"/><path class="c" d="m20.5 40.9v-0.1h0.5v-3.9h-0.5v-0.1h0.3q0.3 0 0.7-0.1v4.1h0.4v0.1z"/><path class="c" d="m26.3 38.5h0.4v-0.7q0.2 0 0.4 0v0.7h0.5v0.2h-0.5v1.8c0 0.1 0 0.3 0.2 0.3 0.2 0 0.3-0.1 0.4-0.2h0.1c-0.1 0.3-0.4 0.4-0.7 0.4-0.4 0-0.5-0.2-0.5-0.5v-1.8h-0.3z"/><path class="c" d="m30.8 38.7v-0.2h1v0.2h-0.4l-0.8 0.7 1.1 1.4h0.3v0.1h-1.2v-0.1h0.3l-1-1.2 1.1-0.9zm-1.5 2.2v-0.1h0.3v-3.9h-0.3v-0.1h0.1q0.4 0 0.7-0.1v4.1h0.4v0.1z"/><path class="c" d="m24.1 18c0 0-1.1 4.8-0.8 12.5 0.1 2.3 0.4 4.4 0.7 6.2 0.2 1.7 0.3 2.2 0.9 4.2l-0.1 1.2c0 0-4.2-13.3-0.7-24.1z"/><path class="c" d="m26.7 13.9c0 0 0.9-0.4 2.3-0.6 0 0 1.4 2.7-2.2 7.3 0 0 2.2-4.8 1.7-6.3 0 0-0.6-0.4-1.8-0.4z"/><path class="c" d="m26.2 22c0 0 0.9 0.2 1.3-0.1 0 0-0.8 3.1-0.6 4.8 0.2 1.8-1.3 2.9-1.3 2.9 0 0 1.3-1.7 0.9-3-0.3-0.9 0-3.3 0.4-4 0 0-0.4-0.1-0.7-0.6z"/><path class="c" d="m25.4 30.3c0 0 1.4-0.2 1.5-0.9 0 0 0.2 4.2-1.7 5.9 0 0 1.4-2.3 1.2-4.6z"/><path class="c" d="m21.5 32c0 0-0.5 0.5-1.8-0.6 0 0 0.4 2.8 3.1 4.1 0 0-1.9-1.3-2.4-2.8 0 0 0.7-0.2 1.1-0.7z"/><path class="c" d="m21 30.9c0 0-1.8-4.6-1.4-10.9 0 0 0.4 1.2 1.8 1.6 0 0-0.7 0.1-1 0 0 0-1 2.7 0.6 9.3z"/><path class="c" d="m28.7 9.4c0 0-0.7-5-5 0.1-3.4 4-3 7.4-2.8 9.4 0.1 0.5-0.6-5.2 3.1-8.9 3.8-3.7 4.6-0.8 4.7-0.6z"/><path class="d" d="m22.4 5.1c0 0-3.4-1-4.4 10.2 0 0-0.9-3.5 1.3-8.3 2.1-4.9 3.1-1.9 3.1-1.9z"/><path class="d" d="m18.2 4.3c0 0-1.7 2.6-1.3 5.3 0 0-1.3-5.2 1.3-5.3z"/><path class="d" d="m30.8 11.5c0 0 2.1-0.7-0.8 6.8 0 0 1.5-2.2 2.4-5.7 0.6-2.2-1.6-1.1-1.6-1.1z"/><path class="d" d="m34.1 10.9c0 0 1.5 1.3 0.4 3 0 0 2.6-2.6-0.4-3z"/><path class="d" d="m14 43.6c0 0.1 0 0.2-0.1 0.2-0.2 0-0.2-0.1-0.2-0.2v-0.6h0.1v0.5c0 0.2 0 0.3 0.1 0.3 0.1 0 0.1-0.1 0.1-0.3v-0.5z"/><path class="d" d="m15.1 43v0.5q0 0.1 0 0.2 0-0.1 0-0.1l-0.2-0.6h-0.1v0.8h0.1v-0.5q0-0.1-0.1-0.2 0.1 0.1 0.1 0.1l0.2 0.6z"/><path class="d" d="m16 43.8h-0.1v-0.8h0.1z"/><path class="d" d="m16.9 43.8h-0.1l-0.1-0.8 0.2 0.6q0 0 0 0.1 0-0.1 0-0.1l0.1-0.6h0.1z"/><path class="d" d="m18 43h-0.2v0.3h0.2v0.1h-0.2v0.4h0.2-0.2v-0.8h0.2z"/><path class="d" d="m18.8 43.8v-0.8c0.2 0 0.3 0 0.3 0.2 0 0.1 0 0.2-0.2 0.2l0.2 0.4h-0.1l-0.2-0.4v0.4zm0.1-0.5h0.1c0.1 0 0.1 0 0.1-0.1 0-0.2-0.1-0.2-0.2-0.2z"/><path class="d" d="m20.1 43.1q0-0.1-0.1-0.1-0.1 0-0.1 0.2c0 0.1 0 0.1 0.1 0.2 0.1 0 0.2 0.1 0.2 0.2 0 0.1-0.1 0.2-0.3 0.2q0 0-0.1 0v-0.1q0.1 0.1 0.1 0.1c0.1 0 0.2-0.1 0.2-0.2 0-0.1-0.1-0.1-0.2-0.2-0.1 0-0.1-0.1-0.1-0.2 0-0.1 0-0.3 0.2-0.3q0 0 0.1 0.1z"/><path class="d" d="m21.2 43.8h-0.1v-0.2h-0.2v0.2h-0.1l0.2-0.8zm-0.1-0.3l-0.1-0.3q0-0.1 0-0.2 0 0.1 0 0.2l-0.1 0.3z"/><path class="d" d="m22 43.8h0.2-0.3v-0.8h0.1z"/><path class="d" d="m24 43.1q-0.1-0.1-0.2-0.1-0.1 0-0.1 0.2c0 0.1 0.1 0.1 0.2 0.2 0 0 0.1 0.1 0.1 0.2 0 0.1-0.1 0.2-0.2 0.2q-0.1 0-0.1 0v-0.1q0 0.1 0.1 0.1c0.1 0 0.1-0.1 0.1-0.2 0-0.1 0-0.1-0.1-0.2-0.1 0-0.2-0.1-0.2-0.2 0-0.1 0.1-0.3 0.2-0.3q0.1 0 0.2 0.1z"/><path class="d" d="m25 43.7q0 0.1-0.1 0.1c-0.1 0-0.1-0.3-0.1-0.4 0-0.2 0-0.4 0.1-0.4q0.1 0 0.1 0.1v-0.1q0-0.1-0.1-0.1c-0.2 0-0.2 0.4-0.2 0.5 0 0.2 0 0.4 0.2 0.4q0.1 0 0.1 0z"/><path class="d" d="m25.8 43.8v-0.8c0.2 0 0.3 0 0.3 0.2 0 0.1 0 0.2-0.2 0.2l0.2 0.4h-0.1l-0.2-0.4v0.4zm0.1-0.5c0.2 0 0.2 0 0.2-0.1 0-0.2-0.1-0.2-0.2-0.2z"/><path class="d" d="m26.9 43.8h-0.1v-0.8h0.1z"/><path class="d" d="m27.6 43.8v-0.8h0.1c0.1 0 0.3 0 0.3 0.2 0 0.2-0.1 0.2-0.3 0.2v0.4zm0.1-0.5c0.1 0 0.1 0 0.1-0.1 0-0.1 0-0.2-0.1-0.2z"/><path class="d" d="m28.9 43h-0.3 0.1v0.8h0.1v-0.8h0.1z"/><path class="d" d="m29.7 43.8h-0.1v-0.8h0.1z"/><path class="d" d="m30.8 43.8h-0.1l-0.2-0.6q0 0 0-0.1 0 0.1 0 0.2v0.5h-0.1v-0.8h0.1l0.2 0.6q0 0 0 0.1 0-0.1 0-0.2v-0.5h0.1z"/><path class="d" d="m31.7 43.4h0.2v0.1c0 0.2 0 0.3-0.2 0.3-0.2 0-0.2-0.2-0.2-0.4 0-0.2 0-0.5 0.2-0.5q0.2 0.1 0.2 0.2h-0.1c0 0 0-0.1-0.1-0.1-0.1 0-0.1 0.2-0.1 0.4 0 0.3 0 0.4 0.1 0.4 0.1 0 0.1-0.1 0.1-0.3v-0.1h-0.1z"/></svg>